<svg xmlns="http://www.w3.org/2000/svg" width="88.855" height="74.009" viewBox="0 0 88.855 74.009">
  <g id="logo" transform="translate(-14.335 -41.431)">
    <path id="Path_26" data-name="Path 26" d="M94.63,93.63v4.23H94.6c-.36,6.13-3.75,9.62-9.43,9.62-6.03,0-9.62-3.49-10.01-9.62h-.03V93.63H66.55v4.23h0v.06h0c.49,10.69,7.66,17.52,18.55,17.52,10.79,0,17.63-6.68,18.09-17.52h0V93.63Z" fill="#003a57"/>
    <rect id="Rectangle_1" data-name="Rectangle 1" width="8.6" height="8.6" transform="translate(66.55 72.02)" fill="#54c38a"/>
    <rect id="Rectangle_2" data-name="Rectangle 2" width="8.72" height="8.72" transform="translate(94.41 72.02)" fill="#003a57"/>
    <rect id="Rectangle_3" data-name="Rectangle 3" width="8.6" height="8.6" transform="translate(51.881 51.13) rotate(90)" fill="#b2c4cd"/>
    <rect id="Rectangle_4" data-name="Rectangle 4" width="8.6" height="8.6" transform="translate(64.506 62.384) rotate(90)" fill="#809cab"/>
    <rect id="Rectangle_5" data-name="Rectangle 5" width="8.6" height="8.6" transform="translate(36.105 58.897) rotate(90)" fill="#cceddc"/>
    <rect id="Rectangle_6" data-name="Rectangle 6" width="8.6" height="8.6" transform="translate(22.935 41.431) rotate(90)" fill="#ccd8dd"/>
    <rect id="Rectangle_7" data-name="Rectangle 7" width="8.6" height="8.6" transform="translate(40.206 97.868) rotate(90)" fill="#e5ebee"/>
    <rect id="Rectangle_8" data-name="Rectangle 8" width="8.6" height="8.6" transform="translate(55.288 82.546) rotate(90)" fill="#a9e1c5"/>
  </g>
</svg>
